<svg xmlns="http://www.w3.org/2000/svg" width="1391.85" height="822.9" viewBox="0 0 1391.85 822.9">
  <g id="Scene-1" transform="translate(-116 -53.05)">
    <g id="circle21" transform="translate(1499.35 867.45)">
      <path id="Path_423" data-name="Path 423" d="M6-6.05A8.267,8.267,0,0,0,0-8.5,8.267,8.267,0,0,0-6-6.05,8.241,8.241,0,0,0-8.5,0q0,.55.05,1.1A8.223,8.223,0,0,0-6,6,8.183,8.183,0,0,0,0,8.5,8.183,8.183,0,0,0,6,6,8.223,8.223,0,0,0,8.45,1.1Q8.5.55,8.5,0A8.241,8.241,0,0,0,6-6.05Z" fill="#fff"/>
    </g>
    <g id="circle20" transform="translate(703.45 539.6)">
      <path id="Path_424" data-name="Path 424" d="M6-6.05A8.267,8.267,0,0,0,0-8.5,8.267,8.267,0,0,0-6-6.05,8.241,8.241,0,0,0-8.5,0,8.183,8.183,0,0,0-6,6,8.183,8.183,0,0,0,0,8.5,8.183,8.183,0,0,0,6,6,8.183,8.183,0,0,0,8.5,0,8.241,8.241,0,0,0,6-6.05Z" fill="#33241a"/>
    </g>
    <g id="circle19" transform="translate(898.9 64.05)">
      <path id="Path_425" data-name="Path 425" d="M7.75-7.8A10.555,10.555,0,0,0,0-11,10.721,10.721,0,0,0-7.8-7.8,10.721,10.721,0,0,0-11,0,10.555,10.555,0,0,0-7.8,7.75,10.638,10.638,0,0,0,0,11,10.474,10.474,0,0,0,7.75,7.75,10.474,10.474,0,0,0,11,0,10.638,10.638,0,0,0,7.75-7.8Z" fill="#33241a"/>
    </g>
    <g id="circle18" transform="translate(326.5 225.6)">
      <path id="Path_426" data-name="Path 426" d="M6-6.05A8.267,8.267,0,0,0,0-8.5,8.267,8.267,0,0,0-6-6.05,8.241,8.241,0,0,0-8.5,0,8.183,8.183,0,0,0-6,6,8.183,8.183,0,0,0,0,8.5,8.183,8.183,0,0,0,6,6,8.183,8.183,0,0,0,8.5,0,8.241,8.241,0,0,0,6-6.05Z" fill="#33241a"/>
    </g>
    <g id="circle17" transform="translate(1292.85 386.05)">
      <path id="Path_427" data-name="Path 427" d="M7.75-7.8A10.555,10.555,0,0,0,0-11,10.721,10.721,0,0,0-7.8-7.8,10.721,10.721,0,0,0-11,0,10.555,10.555,0,0,0-7.8,7.75,10.638,10.638,0,0,0,0,11,10.474,10.474,0,0,0,7.75,7.75,10.474,10.474,0,0,0,11,0,10.638,10.638,0,0,0,7.75-7.8Z" fill="#fff"/>
    </g>
    <g id="circle16" transform="translate(127 64.05)">
      <path id="Path_428" data-name="Path 428" d="M7.75-7.8A10.555,10.555,0,0,0,0-11,10.721,10.721,0,0,0-7.8-7.8,10.721,10.721,0,0,0-11,0,10.555,10.555,0,0,0-7.8,7.75,10.638,10.638,0,0,0,0,11,10.474,10.474,0,0,0,7.75,7.75,10.474,10.474,0,0,0,11,0,10.638,10.638,0,0,0,7.75-7.8Z" fill="#33241a"/>
    </g>
    <g id="circle15" transform="translate(519.95 64.05)">
      <path id="Path_429" data-name="Path 429" d="M7.75-7.8A10.555,10.555,0,0,0,0-11,10.721,10.721,0,0,0-7.8-7.8,10.721,10.721,0,0,0-11,0,10.555,10.555,0,0,0-7.8,7.75,10.638,10.638,0,0,0,0,11,10.474,10.474,0,0,0,7.75,7.75,10.474,10.474,0,0,0,11,0,10.638,10.638,0,0,0,7.75-7.8Z" fill="#33241a"/>
    </g>
    <g id="circle14" transform="translate(897.9 386.05)">
      <path id="Path_430" data-name="Path 430" d="M7.75-7.8A10.555,10.555,0,0,0,0-11,10.721,10.721,0,0,0-7.8-7.8,10.721,10.721,0,0,0-11,0,10.555,10.555,0,0,0-7.8,7.75,10.638,10.638,0,0,0,0,11,10.474,10.474,0,0,0,7.75,7.75,10.474,10.474,0,0,0,11,0,10.638,10.638,0,0,0,7.75-7.8Z" fill="#ffe1cf"/>
    </g>
    <g id="circle13" transform="translate(326.5 539.6)">
      <path id="Path_431" data-name="Path 431" d="M6-6.05A8.267,8.267,0,0,0,0-8.5,8.267,8.267,0,0,0-6-6.05,8.241,8.241,0,0,0-8.5,0,8.183,8.183,0,0,0-6,6,8.183,8.183,0,0,0,0,8.5,8.183,8.183,0,0,0,6,6,8.183,8.183,0,0,0,8.5,0,8.241,8.241,0,0,0,6-6.05Z" fill="#33241a"/>
    </g>
    <g id="circle12" transform="translate(897.9 701.05)">
      <path id="Path_432" data-name="Path 432" d="M7.75-7.8A10.555,10.555,0,0,0,0-11,10.721,10.721,0,0,0-7.8-7.8,10.721,10.721,0,0,0-11,0,10.555,10.555,0,0,0-7.8,7.75,10.638,10.638,0,0,0,0,11,10.474,10.474,0,0,0,7.75,7.75,10.474,10.474,0,0,0,11,0,10.638,10.638,0,0,0,7.75-7.8Z" fill="#ff7b29"/>
    </g>
    <g id="circle11" transform="translate(1291.85 64.05)">
      <path id="Path_433" data-name="Path 433" d="M7.75-7.8A10.555,10.555,0,0,0,0-11,10.721,10.721,0,0,0-7.8-7.8,10.721,10.721,0,0,0-11,0,10.555,10.555,0,0,0-7.8,7.75,10.638,10.638,0,0,0,0,11,10.474,10.474,0,0,0,7.75,7.75,10.474,10.474,0,0,0,11,0,10.638,10.638,0,0,0,7.75-7.8Z" fill="#ff7b29"/>
    </g>
    <g id="circle10" transform="translate(1499.35 539.6)">
      <path id="Path_434" data-name="Path 434" d="M6-6.05A8.267,8.267,0,0,0,0-8.5,8.267,8.267,0,0,0-6-6.05,8.241,8.241,0,0,0-8.5,0,8.183,8.183,0,0,0-6,6,8.183,8.183,0,0,0,0,8.5,8.183,8.183,0,0,0,6,6,8.183,8.183,0,0,0,8.5,0,8.241,8.241,0,0,0,6-6.05Z" fill="#ff7b29"/>
    </g>
    <g id="circle9" transform="translate(326.5 867.45)">
      <path id="Path_435" data-name="Path 435" d="M6-6.05A8.267,8.267,0,0,0,0-8.5,8.267,8.267,0,0,0-6-6.05,8.241,8.241,0,0,0-8.5,0q0,.55.05,1.1A8.223,8.223,0,0,0-6,6,8.183,8.183,0,0,0,0,8.5,8.183,8.183,0,0,0,6,6,8.223,8.223,0,0,0,8.45,1.1Q8.5.55,8.5,0A8.241,8.241,0,0,0,6-6.05Z" fill="#ff7b29"/>
    </g>
    <g id="circle8" transform="translate(127 386.05)">
      <path id="Path_436" data-name="Path 436" d="M7.75-7.8A10.555,10.555,0,0,0,0-11,10.721,10.721,0,0,0-7.8-7.8,10.721,10.721,0,0,0-11,0,10.555,10.555,0,0,0-7.8,7.75,10.638,10.638,0,0,0,0,11,10.474,10.474,0,0,0,7.75,7.75,10.474,10.474,0,0,0,11,0,10.638,10.638,0,0,0,7.75-7.8Z" fill="#ff7b29"/>
    </g>
    <path id="Path_437" data-name="Path 437" d="M703.45,858.95a8.451,8.451,0,0,0-8.5,8.5q0,.546.05,1.05a8.521,8.521,0,0,0,16.9,0q.05-.5.05-1.05a8.451,8.451,0,0,0-8.5-8.5M1101.4,531.1a8.451,8.451,0,0,0-8.5,8.5,8.5,8.5,0,1,0,14.5-6.05,8.267,8.267,0,0,0-6-2.45M709.45,231.6a8.51,8.51,0,0,0,0-12.05,8.5,8.5,0,0,0-14.5,6.05,8.485,8.485,0,0,0,14.5,6m797.2-1.65a8.135,8.135,0,0,0,1.2-4.35,8.521,8.521,0,0,0-14.5-6.05,3.755,3.755,0,0,0-.35.4,5.677,5.677,0,0,0-1,1.35,8.139,8.139,0,0,0-1.15,4.3,8.308,8.308,0,0,0,1.15,4.3.044.044,0,0,0,.05.05,10.7,10.7,0,0,0,.95,1.3l.35.35a8.45,8.45,0,0,0,12,0A8.3,8.3,0,0,0,1506.65,229.95Z" fill="#33241a"/>
    <path id="Path_438" data-name="Path 438" d="M1092.9,867.45q0,.546.05,1.05a8.521,8.521,0,0,0,16.9,0q.05-.5.05-1.05a8.5,8.5,0,1,0-17,0M526.7,708.8a10.474,10.474,0,0,0,3.25-7.75,11,11,0,1,0-11,11A10.474,10.474,0,0,0,526.7,708.8Z" fill="#ffe1cf"/>
    <path id="Path_439" data-name="Path 439" d="M134.75,708.8a10.474,10.474,0,0,0,3.25-7.75,11,11,0,1,0-11,11,10.474,10.474,0,0,0,7.75-3.25m373.2-322.75a11,11,0,1,0,11-11,10.926,10.926,0,0,0-11,11M1107.4,231.6a8.51,8.51,0,0,0,0-12.05,8.5,8.5,0,0,0-14.5,6.05,8.485,8.485,0,0,0,14.5,6Z" fill="#fff"/>
    <path id="Path_440" data-name="Path 440" d="M1300.6,708.8a10.474,10.474,0,0,0,3.25-7.75,11,11,0,1,0-11,11A10.474,10.474,0,0,0,1300.6,708.8Z" fill="#fff"/>
  </g>
</svg>
