<svg xmlns="http://www.w3.org/2000/svg" xmlns:xlink="http://www.w3.org/1999/xlink" width="181" height="64" viewBox="0 0 181 64">
  <defs>
    <clipPath id="clip-Simamisa_logo_1">
      <rect width="181" height="64"/>
    </clipPath>
  </defs>
  <g id="Simamisa_logo_1" data-name="Simamisa logo 1" clip-path="url(#clip-Simamisa_logo_1)">
    <g id="Group_321" data-name="Group 321" transform="translate(-129 -57)">
      <g id="Ellipse_1" data-name="Ellipse 1" transform="translate(300 85)" fill="#ff7b29" stroke="#ff7b29" stroke-width="1">
        <circle cx="4" cy="4" r="4" stroke="none"/>
        <circle cx="4" cy="4" r="3.5" fill="none"/>
      </g>
      <text id="Simamisa" transform="translate(167 90)" font-size="26" font-family="Montserrat-Bold, Montserrat" font-weight="700"><tspan x="0" y="0">Simamisa</tspan></text>
      <g id="Group_278" data-name="Group 278" transform="translate(130 59.454)">
        <g id="drawn-heart" transform="translate(0 7.071)">
          <g id="Group_275" data-name="Group 275" transform="translate(0 0)">
            <g id="Group_274" data-name="Group 274">
              <path id="Path_192" data-name="Path 192" d="M28.1,13.35c-.305,0-.615.013-.919.039a11.069,11.069,0,0,0-8.093,5.1A13.114,13.114,0,0,0,8.818,12.933a10.134,10.134,0,0,0-2.491.308A8.29,8.29,0,0,0,.752,18.068a9.041,9.041,0,0,0,.523,8.248C3.317,29.6,6.818,31.6,10.2,33.538a46.291,46.291,0,0,1,5.079,3.2,15.16,15.16,0,0,1,1.532,1.305,19.821,19.821,0,0,0-1.872,2.546,5.11,5.11,0,0,0-.458,3.635,1.938,1.938,0,0,0,1.059,1.124,1.99,1.99,0,0,0,.809.173c1.2,0,2.3-1.074,3.022-1.975a4.408,4.408,0,0,0,.584-5.146c1.591-1.364,3.322-2.632,5-3.859a48.23,48.23,0,0,0,8.23-7.037c1.158-1.341,4.738-6.056,2.208-10.448C34.055,14.736,31.329,13.35,28.1,13.35ZM17.746,41.716a3.134,3.134,0,0,1-.736.951,4.865,4.865,0,0,1,.478-1.627c.047-.1.354-.548.575-.85A2.411,2.411,0,0,1,17.746,41.716Zm-2.879-24.27a11.176,11.176,0,0,1,1.949,1.943c.066.085.166.244.284.429.677,1.069,1.4,2.112,2.191,2.112.391,0,.721-.26.983-.774,1.67-3.278,4.334-5.232,7.5-5.5.184-.016.371-.023.555-.023a5.547,5.547,0,0,1,5.3,3.346c.987,2.638-.575,5.765-4.775,9.558a71.782,71.782,0,0,1-5.737,4.51c-1.518,1.111-3.086,2.26-4.555,3.484a23.373,23.373,0,0,0-4.427-3.414c-.816-.513-1.7-1.015-2.63-1.547C6.924,28.952,1.725,25.99,2.545,20.474a6,6,0,0,1,6.309-5.191c.247,0,.5.011.752.034A10.165,10.165,0,0,1,14.868,17.446Z" transform="translate(-0.001 -12.933)" fill="#ff7b29"/>
            </g>
          </g>
        </g>
        <g id="handshake" transform="translate(11.146)">
          <path id="Path_199" data-name="Path 199" d="M300.75,34.214a.6.6,0,0,0,.428-.177l4.133-4.133a.605.605,0,1,0-.856-.856l-4.133,4.133a.605.605,0,0,0,.428,1.033Zm0,0" transform="translate(-289.481 -27.161)" fill="#ff7b29"/>
          <path id="Path_200" data-name="Path 200" d="M127.506,34.037a.605.605,0,1,0,.856-.856l-4.133-4.133a.605.605,0,0,0-.856.856Zm0,0" transform="translate(-123.196 -27.161)" fill="#ff7b29"/>
          <path id="Path_201" data-name="Path 201" d="M246.566,45.329a.605.605,0,0,0,.605-.605V41.3a.605.605,0,1,0-1.21,0v3.42A.605.605,0,0,0,246.566,45.329Zm0,0" transform="translate(-238.562 -38.276)" fill="#ff7b29"/>
          <path id="Path_202" data-name="Path 202" d="M246.031,1.335a.6.6,0,1,0,.927-.711.6.6,0,0,0-.927.711Zm0,0" transform="translate(-238.586 -0.5)" fill="#ff7b29"/>
        </g>
        <g id="child" transform="translate(8.605 13.923)">
          <g id="Group_277" data-name="Group 277" transform="translate(0 0)">
            <g id="Group_276" data-name="Group 276">
              <path id="Path_203" data-name="Path 203" d="M122.672,233.515a1.793,1.793,0,0,0-3.585,0h1.088a.7.7,0,0,1,1.409,0Z" transform="translate(-114.717 -224.013)" fill="#ff7b29"/>
              <path id="Path_204" data-name="Path 204" d="M291,231.721a1.8,1.8,0,0,0-1.793,1.793H290.3a.7.7,0,0,1,1.409,0H292.8A1.8,1.8,0,0,0,291,231.721Z" transform="translate(-278.597 -224.012)" fill="#ff7b29"/>
              <path id="Path_205" data-name="Path 205" d="M184.214,342.048a1.963,1.963,0,0,1-1.683-.963l-.937.553a3.041,3.041,0,0,0,5.24,0l-.937-.553A1.963,1.963,0,0,1,184.214,342.048Z" transform="translate(-174.93 -329.363)" fill="#ff7b29"/>
              <path id="Path_206" data-name="Path 206" d="M17.86,29.218a2.4,2.4,0,0,0-1.254-.665,7.709,7.709,0,0,0-7.322-5.322H8.919a1.59,1.59,0,0,1-1.588-1.588H6.243a2.662,2.662,0,0,0,.524,1.588H6.422a1.59,1.59,0,0,1-1.588-1.588H3.746a2.681,2.681,0,0,0,1.836,2.54,7.7,7.7,0,0,0-3.62,4.37,2.417,2.417,0,0,0,0,4.748,7.7,7.7,0,0,0,14.645,0,2.417,2.417,0,0,0,1.254-4.083Zm-1.683,3.037-.408.008-.107.394a6.61,6.61,0,0,1-12.758,0L2.8,32.263l-.408-.008a1.335,1.335,0,0,1-1.3-1.328A1.327,1.327,0,0,1,2.39,29.6l.408-.008.107-.394a6.617,6.617,0,0,1,6.379-4.878A1.783,1.783,0,1,1,7.5,26.1H6.413a2.871,2.871,0,1,0,5.452-1.257,6.611,6.611,0,0,1,3.8,4.351l.107.394.408.008a1.328,1.328,0,0,1,0,2.656Z" transform="translate(0 -21.643)" fill="#ff7b29"/>
            </g>
          </g>
        </g>
      </g>
    </g>
    <text id="Be_a_helping_hand" data-name="Be a helping hand" transform="translate(69 53)" fill="#1e1a33" font-size="12" font-family="Montserrat-Regular, Montserrat" opacity="0.4"><tspan x="0" y="0">Be a helping hand</tspan></text>
    <line id="Line_4" data-name="Line 4" x2="57" transform="translate(6.5 49.5)" fill="none" stroke="#707070" stroke-linecap="round" stroke-width="1" opacity="0.5"/>
  </g>
</svg>
