<svg xmlns="http://www.w3.org/2000/svg" xmlns:xlink="http://www.w3.org/1999/xlink" width="140" height="115" viewBox="0 0 140 115">
  <defs>
    <clipPath id="clip-Simamisa_logo_2">
      <rect width="140" height="115"/>
    </clipPath>
  </defs>
  <g id="Simamisa_logo_2" data-name="Simamisa logo 2" clip-path="url(#clip-Simamisa_logo_2)">
    <g id="Group_322" data-name="Group 322" transform="translate(-68 -12)">
      <g id="Ellipse_1" data-name="Ellipse 1" transform="translate(199 99)" fill="#ff7b29" stroke="#ff7b29" stroke-width="1">
        <circle cx="4" cy="4" r="4" stroke="none"/>
        <circle cx="4" cy="4" r="3.5" fill="none"/>
      </g>
      <g id="Group_323" data-name="Group 323">
        <text id="Simamisa" transform="translate(69 106)" font-size="26" font-family="Montserrat-Bold, Montserrat" font-weight="700"><tspan x="0" y="0">Simamisa</tspan></text>
        <g id="Group_278" data-name="Group 278" transform="translate(98 13.454)">
          <g id="drawn-heart" transform="translate(0 12.31)">
            <g id="Group_275" data-name="Group 275" transform="translate(0 0)">
              <g id="Group_274" data-name="Group 274">
                <path id="Path_192" data-name="Path 192" d="M48.921,13.658c-.532,0-1.07.023-1.6.068-5.469.469-10.456,3.617-14.089,8.882-4.214-5.892-11.181-9.675-17.881-9.675a17.642,17.642,0,0,0-4.336.537,14.432,14.432,0,0,0-9.707,8.4,15.739,15.739,0,0,0,.911,14.358c3.555,5.713,9.649,9.2,15.543,12.572A80.585,80.585,0,0,1,26.6,54.378,26.392,26.392,0,0,1,29.27,56.65a34.506,34.506,0,0,0-3.259,4.433c-.676,1.347-1.6,4.2-.8,6.327a3.375,3.375,0,0,0,1.843,1.958,3.463,3.463,0,0,0,1.409.3c2.081,0,4.009-1.87,5.261-3.437,2.289-2.87,2.632-5.883,1.017-8.959,2.77-2.375,5.783-4.582,8.7-6.718,5.015-3.674,10.2-7.474,14.328-12.251,2.016-2.334,8.249-10.542,3.843-18.189C59.285,16.072,54.54,13.658,48.921,13.658ZM30.893,63.04A5.456,5.456,0,0,1,29.611,64.7a8.469,8.469,0,0,1,.833-2.832c.082-.17.617-.954,1-1.479A4.2,4.2,0,0,1,30.893,63.04ZM25.882,20.789a19.455,19.455,0,0,1,3.392,3.383c.114.147.29.425.494.747,1.178,1.861,2.444,3.677,3.815,3.677.68,0,1.256-.453,1.711-1.348,2.907-5.706,7.546-9.108,13.061-9.58.321-.028.646-.041.967-.041,4.22,0,7.93,2.341,9.234,5.825,1.718,4.593-1,10.036-8.313,16.638a124.962,124.962,0,0,1-9.988,7.852c-2.643,1.935-5.373,3.935-7.929,6.064a40.689,40.689,0,0,0-7.707-5.944c-1.42-.894-2.954-1.768-4.579-2.693C12.053,40.82,3,35.663,4.43,26.062c.816-5.49,5.126-9.037,10.982-9.037.43,0,.871.019,1.31.059A17.7,17.7,0,0,1,25.882,20.789Z" transform="translate(-0.001 -12.933)" fill="#ff7b29"/>
              </g>
            </g>
          </g>
          <g id="handshake" transform="translate(19.404)">
            <path id="Path_199" data-name="Path 199" d="M301.2,38.173a1.05,1.05,0,0,0,.745-.309l7.195-7.195a1.053,1.053,0,0,0-1.49-1.49l-7.195,7.195a1.053,1.053,0,0,0,.745,1.8Zm0,0" transform="translate(-281.581 -25.894)" fill="#ff7b29"/>
            <path id="Path_200" data-name="Path 200" d="M130.7,37.864a1.053,1.053,0,1,0,1.49-1.49l-7.195-7.195a1.053,1.053,0,0,0-1.49,1.49Zm0,0" transform="translate(-123.196 -25.895)" fill="#ff7b29"/>
            <path id="Path_201" data-name="Path 201" d="M247.014,48.76a1.053,1.053,0,0,0,1.053-1.053V41.752a1.053,1.053,0,1,0-2.106,0v5.954A1.053,1.053,0,0,0,247.014,48.76Zm0,0" transform="translate(-233.081 -36.481)" fill="#ff7b29"/>
            <path id="Path_202" data-name="Path 202" d="M246.064,1.953A1.053,1.053,0,1,0,247.677.715a1.053,1.053,0,0,0-1.613,1.238Zm0,0" transform="translate(-233.103 -0.5)" fill="#ff7b29"/>
          </g>
          <g id="child" transform="translate(14.981 24.238)">
            <g id="Group_277" data-name="Group 277" transform="translate(0 0)">
              <g id="Group_276" data-name="Group 276">
                <path id="Path_203" data-name="Path 203" d="M125.328,234.843a3.121,3.121,0,0,0-6.241,0h1.894a1.227,1.227,0,0,1,2.453,0Z" transform="translate(-111.479 -218.301)" fill="#ff7b29"/>
                <path id="Path_204" data-name="Path 204" d="M292.331,231.721a3.124,3.124,0,0,0-3.121,3.121H291.1a1.227,1.227,0,0,1,2.453,0h1.894A3.124,3.124,0,0,0,292.331,231.721Z" transform="translate(-270.734 -218.3)" fill="#ff7b29"/>
                <path id="Path_205" data-name="Path 205" d="M186.156,342.761a3.418,3.418,0,0,1-2.93-1.676l-1.631.962a5.294,5.294,0,0,0,9.123,0l-1.631-.963A3.418,3.418,0,0,1,186.156,342.761Z" transform="translate(-169.993 -320.678)" fill="#ff7b29"/>
                <path id="Path_206" data-name="Path 206" d="M31.093,34.83a4.186,4.186,0,0,0-2.183-1.157,13.421,13.421,0,0,0-12.747-9.265h-.635a2.768,2.768,0,0,1-2.765-2.765H10.868a4.634,4.634,0,0,0,.912,2.765h-.6a2.768,2.768,0,0,1-2.765-2.765H6.521a4.666,4.666,0,0,0,3.2,4.422,13.4,13.4,0,0,0-6.3,7.608,4.208,4.208,0,0,0,0,8.265,13.4,13.4,0,0,0,25.495,0,4.208,4.208,0,0,0,2.183-7.108Zm-2.929,5.288-.711.013-.186.686a11.507,11.507,0,0,1-22.21,0l-.186-.686-.711-.013a2.324,2.324,0,0,1-2.267-2.312,2.311,2.311,0,0,1,2.267-2.312l.711-.013.186-.686a11.52,11.52,0,0,1,11.1-8.491,3.1,3.1,0,1,1-3.1,3.1H11.164a5,5,0,1,0,9.491-2.188,11.509,11.509,0,0,1,6.612,7.575l.186.686.711.013a2.313,2.313,0,0,1,0,4.624Z" transform="translate(0 -21.643)" fill="#ff7b29"/>
              </g>
            </g>
          </g>
        </g>
        <text id="Be_a_helping_hand" data-name="Be a helping hand" transform="translate(78 121)" fill="#1e1a33" font-size="12" font-family="Montserrat-Regular, Montserrat" opacity="0.4"><tspan x="0" y="0">Be a helping hand</tspan></text>
      </g>
    </g>
  </g>
</svg>
